<svg xmlns="http://www.w3.org/2000/svg" width="1000" height="310" viewBox="0 0 1000 310" role="img" aria-labelledby="title desc">
  <title id="title">Variya — Curiosity into something useful.</title>
  <desc id="desc">A personal lab for AI agents, skills and workflows. An idea becomes a skill, a workflow, and something useful.</desc>
  <defs><pattern id="grid" width="26" height="26" patternUnits="userSpaceOnUse"><circle cx="1" cy="1" r="1" fill="#e2e8da"/></pattern></defs>
  <rect width="1000" height="310" rx="16" fill="#f3f5ed"/>
  <rect x="602" y="20" width="376" height="270" fill="url(#grid)"/>
  <g font-family="Segoe UI, Arial, sans-serif">
    <circle cx="45" cy="39" r="5" fill="#48643a"/>
    <text x="61" y="44" fill="#526252" font-family="Consolas, monospace" font-size="13" letter-spacing="2">A PERSONAL LAB / VARIYAONE</text>
    <text x="39" y="136" fill="#202d25" font-size="80" font-weight="700" letter-spacing="-4">Variya<tspan fill="#48643a">.</tspan></text>
    <text x="43" y="183" fill="#202d25" font-size="24">Curiosity into something useful.</text>
    <path d="M44 215H550" stroke="#c9d4c1"/>
    <text x="44" y="251" fill="#526252" font-family="Consolas, monospace" font-size="13" letter-spacing="1.5">AI AGENTS / SKILLS / WORKFLOWS</text>
    <g fill="none" stroke="#c9d4c1" stroke-width="1.5">
      <path d="M690 87H758Q770 87 770 99V136"/>
      <path d="M852 157H891Q903 157 903 169V226H863"/>
      <path d="M687 247H648Q636 247 636 235V108" stroke-dasharray="4 5"/>
    </g>
    <rect x="614" y="64" width="104" height="44" rx="10" fill="#e4ebdb" stroke="#c9d4c1"/>
    <text x="666" y="92" text-anchor="middle" fill="#202d25" font-family="Consolas, monospace" font-size="16">idea</text>
    <rect x="705" y="134" width="146" height="46" rx="10" fill="#e4ebdb" stroke="#c9d4c1"/>
    <text x="778" y="163" text-anchor="middle" fill="#202d25" font-family="Consolas, monospace" font-size="16">skill / flow</text>
    <rect x="687" y="222" width="176" height="49" rx="10" fill="#48643a"/>
    <text x="775" y="253" text-anchor="middle" fill="#ffffff" font-family="Consolas, monospace" font-size="17" font-weight="700">make it useful</text>
    <circle cx="903" cy="226" r="4" fill="#48643a"/>
    <text x="913" y="43" text-anchor="end" fill="#526252" font-family="Consolas, monospace" font-size="12">BUILD · LEARN · REPEAT</text>
  </g>
</svg>
